<svg xmlns="http://www.w3.org/2000/svg" viewBox="0 0 205.71 65.87"><defs><style>.cls-1{fill:#fff;}.cls-2{fill:#231f20;}</style></defs><title>Layer 1</title><g id="Layer_2" data-name="Layer 2"><g id="Layer_1-2" data-name="Layer 1"><path class="cls-1" d="M39,28.62c-.37,2.39-.72,4.8-1.07,7.22l3.87-.93.58-.13c1.67-.39,2.67.21,3,1.78a3.22,3.22,0,0,1-.58,2.75A5,5,0,0,1,42,41c-1.51.37-3,.76-4.52,1.15a5.08,5.08,0,0,1-3.63-.19,3.67,3.67,0,0,1-1.93-2.65,7.39,7.39,0,0,1-.07-2.68c0-.35.09-.7.14-1,.24-1.82.48-3.64.73-5.44q-3.6.86-7.18,1.79-.78,6.5-1.46,13.08c-.95,9.07-4.14,14.6-9.72,16.6a9.19,9.19,0,0,1-8.25-.69A12.4,12.4,0,0,1,.73,53.29a19.08,19.08,0,0,1-.48-8.35,19.49,19.49,0,0,1,3.19-8,22.76,22.76,0,0,1,12.34-8.74L19,27.28,20,27q.73-6.54,1.56-13c0-.26.06-.52.08-.78q.45-3.24,3-3.77a2.82,2.82,0,0,1,2.1.33,2.46,2.46,0,0,1,1.19,1.6,8.24,8.24,0,0,1-.07,2.68Q27,19.7,26.3,25.42q3.63-.89,7.28-1.7.9-6.31,1.9-12.53l.12-.79C36,8.25,37,7,38.73,6.72a2.82,2.82,0,0,1,2.05.39,2.49,2.49,0,0,1,1.15,1.66,7.92,7.92,0,0,1-.14,2.68Q40.85,16.87,40,22.34L41.74,22l.62-.13c1.7-.34,2.71.28,3,1.85a3.08,3.08,0,0,1-.61,2.72A4.9,4.9,0,0,1,41.9,28ZM19.26,33.55l-1.21.33c-4.41,1.23-7.63,3.41-9.61,6.5a14.55,14.55,0,0,0-2.06,5.11,10.75,10.75,0,0,0,.1,4.94A6.81,6.81,0,0,0,9,54.36a4.08,4.08,0,0,0,3.85.56c3-1,4.77-4.73,5.35-11.07Q18.72,38.67,19.26,33.55Z"/><path class="cls-1" d="M66.12,29.93l3.82-.65q3.14-.51,3.48,1.7a3,3,0,0,1-.72,2.61A5.05,5.05,0,0,1,69.77,35l-4.08.76a6.17,6.17,0,0,1-3.92-.27A3.48,3.48,0,0,1,60,32.83a11.35,11.35,0,0,1,.26-3.92q1.24-6.22,2.59-12.35a16.25,16.25,0,0,0,.59-5,2.57,2.57,0,0,0-1.29-1.75,3.48,3.48,0,0,0-2.37-.53,5.46,5.46,0,0,0-3.89,2.67,6.48,6.48,0,0,0-1,4.89A3.68,3.68,0,0,0,55.89,19a5.82,5.82,0,0,0,2.6,1.1,2.2,2.2,0,0,1,1.87,1.84,2.91,2.91,0,0,1-.6,2.42,3.71,3.71,0,0,1-2.32,1.33A6.29,6.29,0,0,1,52.07,24a9.74,9.74,0,0,1-3.23-5.72A12.26,12.26,0,0,1,50.9,8.6a11.62,11.62,0,0,1,8.35-5.16,10,10,0,0,1,6.92,1.44,7.42,7.42,0,0,1,3.51,5.24,14.17,14.17,0,0,1-.35,5.5Q67.66,22.72,66.12,29.93Z"/><path class="cls-1" d="M102.13,16.81q3.15,6.09,6.14,12.08a2.66,2.66,0,0,0,2.89,1.36q3.69-.3,7.4-.54c2.16-.14,3.28.5,3.38,1.88a2.64,2.64,0,0,1-1,2.31,5.51,5.51,0,0,1-3.1,1c-2.51.2-5,.41-7.51.66a8.35,8.35,0,0,1-4.28-.37,6.9,6.9,0,0,1-2.55-3.08Q99.73,24.68,95.69,17q-1.75,5.84-3.42,11.77c-.65,2.33-1.8,3.61-3.47,3.84a2.62,2.62,0,0,1-1.88-.43,2.11,2.11,0,0,1-1-1.49A4.9,4.9,0,0,1,86.12,29c.06-.23.13-.46.19-.69q2-7.57,4.16-15a14.33,14.33,0,0,0,.83-4.63A2.52,2.52,0,0,0,90,6.83a3.87,3.87,0,0,0-2.47-.62,5.65,5.65,0,0,0-4.1,2.3A5.82,5.82,0,0,0,82.15,13c.25,1.75,1.4,2.86,3.43,3.33a2.3,2.3,0,0,1,2.06,1.93,2.52,2.52,0,0,1-.74,2.18,3.76,3.76,0,0,1-2.4,1.11,6.49,6.49,0,0,1-5.29-1.8,8.9,8.9,0,0,1-2.93-5.52,11.22,11.22,0,0,1,2.56-9.15A11.75,11.75,0,0,1,87.51.68a10.65,10.65,0,0,1,6.87,1.74,7.1,7.1,0,0,1,3.26,5.16A12.82,12.82,0,0,1,97,12.75l-.6,1.93Q101.85,8.14,107.58,2a5.21,5.21,0,0,1,3.55-2,3.08,3.08,0,0,1,2,.65,2.39,2.39,0,0,1,.92,1.7c.08.84-.48,1.88-1.67,3.13Q107.15,11,102.13,16.81Z"/><path class="cls-1" d="M131.6,13q2.1-5,4.28-10A4.11,4.11,0,0,1,137.37.94a6.34,6.34,0,0,1,3-.32q6.25.3,12.51.77c2.23.17,3.36.88,3.38,2.11a2.22,2.22,0,0,1-1.06,2,4.17,4.17,0,0,1-2.69.63l-.65,0q-5.13-.32-10.24-.53-1.68,3.73-3.3,7.52l3,.06.62,0c1.77,0,2.68.72,2.72,2a2.35,2.35,0,0,1-1,2,4.07,4.07,0,0,1-2.6.79h-.63l-4.11,0q-2.35,5.57-4.6,11.27,7.94-.27,15.9-.25h.6c1.72,0,2.59.63,2.61,1.87a2.42,2.42,0,0,1-1,2,4,4,0,0,1-2.56.84h-.62q-8.46.09-16.88.52l-.27.59a44.58,44.58,0,0,1-2.22,4.67,14.47,14.47,0,0,1-10.5,6.71,9.31,9.31,0,0,1-6.64-1.5A7.18,7.18,0,0,1,107,39.2a8,8,0,0,1,.71-4.19,7.71,7.71,0,0,1,2.75-3.23A13.63,13.63,0,0,1,117,29.92q4-.29,8.11-.48,2.17-5.82,4.45-11.5h-.78c-1.75,0-2.66-.63-2.76-2a2.46,2.46,0,0,1,1-2.1,3.91,3.91,0,0,1,2.6-.87h2Zm-8.34,21.57c-2,.13-4,.28-6,.44-3,.23-4.35,1.36-4.18,3.34a2.49,2.49,0,0,0,1.14,1.93,3.61,3.61,0,0,0,2.47.59A6.2,6.2,0,0,0,120.46,39,11.9,11.9,0,0,0,123.26,34.55Z"/><path class="cls-1" d="M184.82,19.71q2.31,4.86,4.52,9.61a3,3,0,0,0,2.39,2l.92.08q4.84.52,9.67,1.15c2.13.28,3.15,1,3.06,2a1.94,1.94,0,0,1-1.26,1.69,6.16,6.16,0,0,1-3.2.28q-5.29-.61-10.59-1.11c-2.91-.26-4.87-1.49-5.92-3.77q-3-6.6-6.29-13.41-1.67,2.91-3.3,5.87c-1.57,2.83-2.66,4.77-3.3,5.78a19.22,19.22,0,0,1-2.21,2.79,14.56,14.56,0,0,1-11,4.62,11.76,11.76,0,0,1-7.81-2.59,8.86,8.86,0,0,1-3.15-6.84,11.79,11.79,0,0,1,4.59-9.62A17.47,17.47,0,0,1,158.41,15a21.92,21.92,0,0,1,7.84-.8,6.12,6.12,0,0,1,3,.93A2.18,2.18,0,0,1,170.38,17a2,2,0,0,1-1.25,1.78,7.48,7.48,0,0,1-2.74.37,18.71,18.71,0,0,0-7.54,1.3,9.24,9.24,0,0,0-3.74,3,6.52,6.52,0,0,0-1.31,4,4.71,4.71,0,0,0,1.36,3.51,5.08,5.08,0,0,0,3.6,1.34,6.72,6.72,0,0,0,4.87-1.84,25.48,25.48,0,0,0,4.62-6.73q4.14-7.83,8.46-15.34L174.23,8c-2.21-.25-3.31-1-3.3-2.17A2,2,0,0,1,172.11,4a5.94,5.94,0,0,1,3.3-.32q4,.51,8,1.08a27.68,27.68,0,0,1,4.6,1,9.12,9.12,0,0,1,2.76,1.57,6.23,6.23,0,0,1,2.56,5.36,6.43,6.43,0,0,1-2.51,4.8A10.87,10.87,0,0,1,184.82,19.71Zm-5.2-4.05.69,0a10.25,10.25,0,0,0,4.06-.33c1.74-.66,2.65-1.71,2.71-3.17.07-1.68-1-2.67-3.07-3l-.53-.07Q181.53,12.37,179.62,15.66Z"/><path class="cls-2" d="M39.32,32.27c-.37,2.4-.72,4.8-1.07,7.22l3.87-.93.58-.13c1.67-.39,2.67.21,3,1.78A3.22,3.22,0,0,1,45.11,43a4.91,4.91,0,0,1-2.82,1.64l-4.52,1.15a5,5,0,0,1-3.63-.19,3.67,3.67,0,0,1-1.93-2.64,7.46,7.46,0,0,1-.07-2.69c0-.35.09-.7.14-1q.36-2.73.73-5.44c-2.4.58-4.79,1.17-7.18,1.79Q25,42,24.37,48.61c-.95,9.08-4.14,14.6-9.72,16.6a9.19,9.19,0,0,1-8.25-.69A12.37,12.37,0,0,1,1.05,57a19.13,19.13,0,0,1-.48-8.36,19.4,19.4,0,0,1,3.19-8,21.74,21.74,0,0,1,5.43-5.44,21.68,21.68,0,0,1,6.91-3.3l3.19-.95,1-.29q.73-6.54,1.56-13c0-.26.06-.52.08-.78q.45-3.24,3-3.77a2.82,2.82,0,0,1,2.1.33A2.46,2.46,0,0,1,28.2,15a8.24,8.24,0,0,1-.07,2.68q-.79,5.65-1.51,11.37c2.42-.59,4.85-1.15,7.28-1.7q.9-6.3,1.9-12.53l.12-.79c.36-2.15,1.41-3.38,3.13-3.68a2.78,2.78,0,0,1,2.05.4,2.45,2.45,0,0,1,1.15,1.65,7.92,7.92,0,0,1-.14,2.68Q41.16,20.52,40.29,26l1.77-.37.62-.12c1.7-.35,2.71.27,3,1.84a3.08,3.08,0,0,1-.61,2.72,4.9,4.9,0,0,1-2.88,1.56ZM19.58,37.2l-1.21.34C14,38.76,10.74,40.94,8.76,44A14.63,14.63,0,0,0,6.7,49.14a10.79,10.79,0,0,0,.1,5A6.81,6.81,0,0,0,9.35,58a4.08,4.08,0,0,0,3.85.57c3-1,4.77-4.74,5.35-11.07Q19,42.34,19.58,37.2Z"/><path class="cls-2" d="M66.44,33.58l3.82-.65q3.13-.51,3.48,1.7A3,3,0,0,1,73,37.24a5,5,0,0,1-2.93,1.4L66,39.4a6.1,6.1,0,0,1-3.92-.27,3.48,3.48,0,0,1-1.79-2.65,11.3,11.3,0,0,1,.26-3.91q1.24-6.22,2.59-12.36a16.19,16.19,0,0,0,.59-5,2.59,2.59,0,0,0-1.29-1.75,3.47,3.47,0,0,0-2.37-.52,5.44,5.44,0,0,0-3.89,2.66,6.48,6.48,0,0,0-1,4.89,3.74,3.74,0,0,0,1.06,2.17,5.83,5.83,0,0,0,2.6,1.09,2.19,2.19,0,0,1,1.87,1.85,2.89,2.89,0,0,1-.6,2.41,3.66,3.66,0,0,1-2.32,1.33,6.23,6.23,0,0,1-5.37-1.62A9.74,9.74,0,0,1,49.16,22a12.28,12.28,0,0,1,2.06-9.73,11.65,11.65,0,0,1,8.35-5.16,10.08,10.08,0,0,1,6.92,1.44A7.42,7.42,0,0,1,70,13.77a14.23,14.23,0,0,1-.35,5.51Q68,26.36,66.44,33.58Z"/><path class="cls-2" d="M102.45,20.46q3.15,6.11,6.14,12.08a2.66,2.66,0,0,0,2.89,1.36q3.69-.3,7.4-.54c2.16-.14,3.28.5,3.38,1.88a2.63,2.63,0,0,1-1,2.31,5.43,5.43,0,0,1-3.1,1q-3.77.3-7.51.66a8.35,8.35,0,0,1-4.28-.37,6.92,6.92,0,0,1-2.55-3.07Q100,28.33,96,20.67q-1.76,5.83-3.42,11.77c-.65,2.33-1.8,3.61-3.47,3.84a2.58,2.58,0,0,1-1.88-.43,2.09,2.09,0,0,1-1-1.49,4.92,4.92,0,0,1,.16-1.76c.06-.23.13-.46.19-.69q2-7.57,4.16-15a14.33,14.33,0,0,0,.83-4.63,2.54,2.54,0,0,0-1.26-1.81,3.86,3.86,0,0,0-2.47-.61,5.63,5.63,0,0,0-4.1,2.29,5.82,5.82,0,0,0-1.32,4.53c.25,1.75,1.4,2.86,3.43,3.33,1.24.29,1.93.93,2.06,1.93a2.54,2.54,0,0,1-.74,2.19,3.86,3.86,0,0,1-2.4,1.11,6.52,6.52,0,0,1-5.29-1.8,9,9,0,0,1-2.94-5.53,11.27,11.27,0,0,1,2.57-9.15,11.79,11.79,0,0,1,8.67-4.44A10.65,10.65,0,0,1,94.7,6.07,7.1,7.1,0,0,1,98,11.24a12.8,12.8,0,0,1-.65,5.16l-.6,1.94q5.46-6.55,11.19-12.68a5.21,5.21,0,0,1,3.55-2,3.08,3.08,0,0,1,2,.65,2.39,2.39,0,0,1,.92,1.7c.08.84-.48,1.88-1.67,3.13Q107.46,14.62,102.45,20.46Z"/><path class="cls-2" d="M131.92,16.63q2.1-5,4.28-10a4.11,4.11,0,0,1,1.49-2,6.34,6.34,0,0,1,3-.32q6.25.3,12.51.77c2.23.17,3.36.88,3.38,2.11a2.22,2.22,0,0,1-1.06,2,4.18,4.18,0,0,1-2.69.64l-.65,0Q147,9.38,141.9,9.18q-1.68,3.72-3.3,7.52c1,0,2,0,3,.06h.62c1.77.05,2.68.73,2.72,2a2.32,2.32,0,0,1-1,2,4,4,0,0,1-2.6.79h-.63l-4.11,0q-2.35,5.58-4.6,11.27,7.94-.27,15.9-.25h.6c1.72,0,2.59.64,2.61,1.87a2.45,2.45,0,0,1-1,2,4.09,4.09,0,0,1-2.56.83h-.61q-8.48.09-16.89.51l-.27.59a43.58,43.58,0,0,1-2.22,4.67A14.47,14.47,0,0,1,117,49.8a9.31,9.31,0,0,1-6.64-1.5,7.18,7.18,0,0,1-3.08-5.44,8,8,0,0,1,.71-4.2,7.84,7.84,0,0,1,2.75-3.23,13.63,13.63,0,0,1,6.62-1.86c2.7-.19,5.4-.34,8.11-.48q2.18-5.81,4.45-11.5h-.78c-1.75,0-2.66-.63-2.75-2a2.42,2.42,0,0,1,.94-2.1,4,4,0,0,1,2.6-.87h2ZM123.58,38.2c-2,.13-4,.28-6,.44-3,.23-4.35,1.36-4.18,3.34a2.52,2.52,0,0,0,1.14,1.94,3.6,3.6,0,0,0,2.47.58,6.24,6.24,0,0,0,3.76-1.88A12,12,0,0,0,123.58,38.2Z"/><path class="cls-2" d="M185.14,23.36q2.31,4.86,4.52,9.61a3,3,0,0,0,2.39,2L193,35q4.84.52,9.67,1.15c2.13.28,3.15,1,3.06,2a2,2,0,0,1-1.26,1.69,6.29,6.29,0,0,1-3.2.27q-5.3-.61-10.59-1.1c-2.91-.27-4.87-1.5-5.91-3.78q-3.06-6.59-6.3-13.4-1.66,2.91-3.3,5.86c-1.57,2.83-2.66,4.77-3.3,5.78a17.61,17.61,0,0,1-2.21,2.79,14.56,14.56,0,0,1-11,4.62,11.71,11.71,0,0,1-7.81-2.59,8.85,8.85,0,0,1-3.15-6.83,11.8,11.8,0,0,1,4.59-9.63,17.47,17.47,0,0,1,6.51-3.26,21.92,21.92,0,0,1,7.84-.8,6.12,6.12,0,0,1,3,.93,2.18,2.18,0,0,1,1.13,1.85,2,2,0,0,1-1.25,1.78,7.48,7.48,0,0,1-2.74.37,18.56,18.56,0,0,0-7.54,1.31,9.14,9.14,0,0,0-3.74,3,6.52,6.52,0,0,0-1.31,4,4.74,4.74,0,0,0,1.36,3.51,5.11,5.11,0,0,0,3.6,1.33A6.75,6.75,0,0,0,164,34a25.57,25.57,0,0,0,4.62-6.74Q172.71,19.47,177,12l-2.48-.29c-2.21-.24-3.31-1-3.3-2.17a2,2,0,0,1,1.18-1.89,5.86,5.86,0,0,1,3.3-.31q4,.5,8,1.07a27.47,27.47,0,0,1,4.6,1,9,9,0,0,1,2.77,1.56,6.26,6.26,0,0,1,2.55,5.37,6.46,6.46,0,0,1-2.51,4.8A10.94,10.94,0,0,1,185.14,23.36Zm-5.2-4.05.69,0a10.41,10.41,0,0,0,4.06-.34c1.75-.66,2.65-1.7,2.71-3.17.07-1.67-1-2.67-3.07-3l-.53-.07C182.5,15,181.21,17.12,179.94,19.31Z"/></g></g></svg>