<svg xmlns="http://www.w3.org/2000/svg" xmlns:xlink="http://www.w3.org/1999/xlink" viewBox="0 0 217.5 218.69"><defs><style>.cls-1{fill:url(#linear-gradient);}.cls-2{fill:#fff;}.cls-3{fill:#231f20;}.cls-4{fill:#00a651;opacity:0.8;}</style><linearGradient id="linear-gradient" x1="33.19" y1="33.19" x2="185.65" y2="185.65" gradientUnits="userSpaceOnUse"><stop offset="0" stop-color="#facec0"/><stop offset="0.73" stop-color="#f5daa5" stop-opacity="0.24"/><stop offset="1" stop-color="#72cbd0" stop-opacity="0.24"/></linearGradient></defs><title>Hiker Logo Var</title><g id="Layer_2" data-name="Layer 2"><g id="Layer_1-2" data-name="Layer 1"><path class="cls-1" d="M217.5,108.75A108.75,108.75,0,1,1,18.57,48c5.21-7.71,27.14,4.51,34.1-1.62,4.69-4.13-6-27.1-.64-30.39A108.78,108.78,0,0,1,217.5,108.75Z"/><path class="cls-2" d="M48.42,103.79c-.37,2.4-.72,4.81-1.07,7.22l3.87-.92.58-.14c1.67-.39,2.67.21,3,1.78a3.22,3.22,0,0,1-.58,2.75,4.91,4.91,0,0,1-2.82,1.64l-4.52,1.15a5,5,0,0,1-3.63-.19,3.67,3.67,0,0,1-1.93-2.64,7.46,7.46,0,0,1-.07-2.69c0-.35.09-.7.14-1,.23-1.82.48-3.63.73-5.44q-3.6.87-7.18,1.79-.78,6.51-1.46,13.08c-.95,9.08-4.14,14.6-9.72,16.6A9.19,9.19,0,0,1,15.5,136a12.37,12.37,0,0,1-5.35-7.57,19.13,19.13,0,0,1-.48-8.36,19.4,19.4,0,0,1,3.19-8,22.62,22.62,0,0,1,12.34-8.74l3.19-1,1-.29q.74-6.54,1.56-13c0-.26.06-.52.08-.78q.45-3.24,3-3.77a2.82,2.82,0,0,1,2.1.33,2.46,2.46,0,0,1,1.19,1.6,8.24,8.24,0,0,1-.07,2.68q-.79,5.66-1.51,11.37c2.42-.59,4.85-1.15,7.28-1.7q.9-6.3,1.9-12.53l.12-.79c.36-2.15,1.41-3.38,3.13-3.68a2.78,2.78,0,0,1,2.05.4,2.45,2.45,0,0,1,1.15,1.65,7.92,7.92,0,0,1-.14,2.68Q50.27,92,49.39,97.51l1.77-.37.62-.12c1.7-.35,2.71.28,3,1.84a3.08,3.08,0,0,1-.61,2.72,4.9,4.9,0,0,1-2.88,1.56Zm-19.75,4.93-1.2.34c-4.41,1.22-7.63,3.4-9.61,6.49a14.44,14.44,0,0,0-2.06,5.11,10.79,10.79,0,0,0,.1,5,6.81,6.81,0,0,0,2.55,3.92,4.08,4.08,0,0,0,3.85.57c3-1,4.77-4.73,5.35-11.07Q28.15,113.85,28.67,108.72Z"/><path class="cls-2" d="M75.54,105.1l3.82-.65q3.14-.51,3.48,1.7a3,3,0,0,1-.72,2.61,5,5,0,0,1-2.93,1.4l-4.09.76a6.08,6.08,0,0,1-3.91-.27A3.45,3.45,0,0,1,69.4,108a11.3,11.3,0,0,1,.26-3.91q1.25-6.23,2.59-12.36a16.19,16.19,0,0,0,.59-5A2.59,2.59,0,0,0,71.55,85a3.47,3.47,0,0,0-2.37-.52,5.46,5.46,0,0,0-3.89,2.67,6.45,6.45,0,0,0-1,4.88,3.74,3.74,0,0,0,1.06,2.17,5.83,5.83,0,0,0,2.6,1.09,2.21,2.21,0,0,1,1.87,1.85,2.89,2.89,0,0,1-.6,2.41,3.66,3.66,0,0,1-2.32,1.33,6.23,6.23,0,0,1-5.37-1.62,9.74,9.74,0,0,1-3.23-5.71,12.28,12.28,0,0,1,2.06-9.73,11.65,11.65,0,0,1,8.35-5.16,10.08,10.08,0,0,1,6.92,1.44,7.42,7.42,0,0,1,3.51,5.24,14.23,14.23,0,0,1-.35,5.51Q77.09,97.88,75.54,105.1Z"/><path class="cls-2" d="M111.55,92q3.14,6.1,6.14,12.08a2.65,2.65,0,0,0,2.89,1.36q3.69-.3,7.4-.54c2.16-.14,3.28.5,3.38,1.88a2.61,2.61,0,0,1-1,2.31,5.42,5.42,0,0,1-3.09,1q-3.77.3-7.51.66a8.24,8.24,0,0,1-4.28-.37,6.92,6.92,0,0,1-2.55-3.07q-3.8-7.48-7.83-15.14Q103.35,98,101.68,104c-.64,2.34-1.79,3.61-3.46,3.84a2.58,2.58,0,0,1-1.88-.43,2.06,2.06,0,0,1-1-1.49,4.92,4.92,0,0,1,.16-1.76c.06-.23.13-.46.19-.69q2-7.58,4.16-15a14.33,14.33,0,0,0,.83-4.63A2.54,2.54,0,0,0,99.46,82,3.86,3.86,0,0,0,97,81.39a5.63,5.63,0,0,0-4.1,2.29,5.82,5.82,0,0,0-1.32,4.53C91.82,90,93,91.07,95,91.54c1.24.29,1.93.93,2.06,1.93a2.54,2.54,0,0,1-.74,2.19,3.86,3.86,0,0,1-2.4,1.11A6.52,6.52,0,0,1,88.63,95a9,9,0,0,1-2.94-5.53,11.27,11.27,0,0,1,2.57-9.15,11.79,11.79,0,0,1,8.67-4.44,10.65,10.65,0,0,1,6.87,1.74,7.1,7.1,0,0,1,3.26,5.17,12.8,12.8,0,0,1-.65,5.16l-.6,1.94q5.44-6.56,11.19-12.68a5.21,5.21,0,0,1,3.55-2,3,3,0,0,1,2,.65,2.36,2.36,0,0,1,.93,1.7c.07.84-.48,1.88-1.67,3.13Q116.57,86.14,111.55,92Z"/><path class="cls-2" d="M141,88.15q2.1-5,4.28-10a4.09,4.09,0,0,1,1.49-2.06,6.32,6.32,0,0,1,3-.32q6.25.3,12.51.77c2.23.17,3.36.88,3.38,2.12a2.22,2.22,0,0,1-1.06,1.95,4.12,4.12,0,0,1-2.69.64l-.65,0q-5.13-.33-10.24-.53-1.68,3.72-3.3,7.52l3,.06h.62c1.77,0,2.67.73,2.72,2a2.34,2.34,0,0,1-1,2,4,4,0,0,1-2.6.79h-.64q-2.06,0-4.11,0-2.34,5.58-4.59,11.27,7.94-.27,15.9-.25h.6c1.72,0,2.59.64,2.61,1.87a2.45,2.45,0,0,1-1,2,4.09,4.09,0,0,1-2.56.83H156q-8.46.09-16.88.51l-.27.59a43.58,43.58,0,0,1-2.22,4.67,14.47,14.47,0,0,1-10.5,6.71,9.35,9.35,0,0,1-6.65-1.5,7.18,7.18,0,0,1-3.07-5.44,8,8,0,0,1,.71-4.2,7.75,7.75,0,0,1,2.75-3.22,13.52,13.52,0,0,1,6.62-1.87c2.7-.19,5.4-.34,8.1-.48q2.19-5.81,4.46-11.5h-.78c-1.75,0-2.66-.63-2.76-2a2.46,2.46,0,0,1,1-2.1,4,4,0,0,1,2.6-.87h2Zm-8.34,21.57q-3,.19-6,.44c-3,.23-4.35,1.36-4.18,3.34a2.52,2.52,0,0,0,1.14,1.94,3.6,3.6,0,0,0,2.47.58,6.26,6.26,0,0,0,3.76-1.88A12.07,12.07,0,0,0,132.68,109.72Z"/><path class="cls-2" d="M194.24,94.88q2.31,4.86,4.52,9.61a3,3,0,0,0,2.39,2l.92.08q4.85.52,9.67,1.15c2.13.28,3.15,1,3.06,2a1.94,1.94,0,0,1-1.26,1.69,6.29,6.29,0,0,1-3.2.27q-5.29-.61-10.59-1.1c-2.91-.27-4.87-1.5-5.92-3.78q-3-6.58-6.29-13.4-1.66,2.91-3.3,5.86c-1.57,2.83-2.66,4.77-3.3,5.78a18.2,18.2,0,0,1-2.21,2.79,14.56,14.56,0,0,1-11,4.62,11.71,11.71,0,0,1-7.81-2.59,8.85,8.85,0,0,1-3.15-6.83,11.82,11.82,0,0,1,4.58-9.63,17.62,17.62,0,0,1,6.51-3.26,22,22,0,0,1,7.85-.8,6.12,6.12,0,0,1,3,.93,2.18,2.18,0,0,1,1.13,1.85,2,2,0,0,1-1.25,1.78,7.48,7.48,0,0,1-2.74.37,18.53,18.53,0,0,0-7.54,1.31,9.14,9.14,0,0,0-3.74,3,6.52,6.52,0,0,0-1.31,4,4.74,4.74,0,0,0,1.36,3.51,5.11,5.11,0,0,0,3.6,1.33,6.75,6.75,0,0,0,4.87-1.83,25.57,25.57,0,0,0,4.62-6.74q4.14-7.83,8.46-15.34l-2.48-.29q-3.32-.36-3.3-2.16a2,2,0,0,1,1.18-1.9,5.86,5.86,0,0,1,3.3-.31q4,.5,8,1.07a27.47,27.47,0,0,1,4.6,1,8.88,8.88,0,0,1,2.76,1.56,6.21,6.21,0,0,1,2.55,5.37,6.45,6.45,0,0,1-2.5,4.8A10.94,10.94,0,0,1,194.24,94.88Zm-5.2-4,.69,0a10.41,10.41,0,0,0,4.06-.34c1.74-.66,2.65-1.7,2.71-3.17.07-1.67-1-2.67-3.07-3l-.53-.07C191.6,86.48,190.31,88.64,189,90.83Z"/><path class="cls-3" d="M48.74,107.44c-.37,2.4-.72,4.81-1.07,7.22l3.87-.92.58-.14c1.67-.39,2.67.21,3,1.78a3.21,3.21,0,0,1-.58,2.75,4.91,4.91,0,0,1-2.82,1.64c-1.51.38-3,.76-4.52,1.16a5.08,5.08,0,0,1-3.63-.19,3.71,3.71,0,0,1-1.93-2.65,7.45,7.45,0,0,1-.07-2.69c0-.35.09-.7.14-1.05.23-1.82.48-3.63.73-5.44q-3.6.87-7.18,1.8-.78,6.5-1.46,13.07c-.95,9.08-4.14,14.61-9.72,16.61a9.16,9.16,0,0,1-8.25-.7,12.37,12.37,0,0,1-5.35-7.57,19.13,19.13,0,0,1-.48-8.36,19.45,19.45,0,0,1,3.19-8,22.76,22.76,0,0,1,12.34-8.74l3.19-1,1-.28c.49-4.37,1-8.7,1.56-13,0-.25.06-.51.08-.77q.45-3.26,3-3.78a2.82,2.82,0,0,1,2.1.33,2.46,2.46,0,0,1,1.19,1.61,8.17,8.17,0,0,1-.07,2.67q-.79,5.66-1.51,11.37c2.42-.58,4.85-1.15,7.28-1.69q.9-6.31,1.9-12.54l.12-.78c.36-2.16,1.41-3.38,3.13-3.69a2.83,2.83,0,0,1,2.05.4,2.47,2.47,0,0,1,1.15,1.65,7.79,7.79,0,0,1-.15,2.69q-.93,5.4-1.81,10.88l1.77-.36.62-.13c1.7-.34,2.71.28,3,1.85a3.12,3.12,0,0,1-.61,2.72,5,5,0,0,1-2.88,1.56ZM29,112.38l-1.2.33c-4.41,1.22-7.63,3.4-9.61,6.5a14.29,14.29,0,0,0-2.06,5.11,10.75,10.75,0,0,0,.1,4.94,6.81,6.81,0,0,0,2.55,3.92,4.08,4.08,0,0,0,3.85.57c3-1,4.77-4.73,5.35-11.07C28.3,119.23,28.64,115.79,29,112.38Z"/><path class="cls-3" d="M75.86,108.76c1.27-.23,2.55-.44,3.82-.65,2.09-.35,3.25.23,3.48,1.7a3,3,0,0,1-.72,2.61,5.15,5.15,0,0,1-2.93,1.4c-1.37.24-2.73.49-4.09.75a6.08,6.08,0,0,1-3.91-.27,3.44,3.44,0,0,1-1.79-2.65,11.3,11.3,0,0,1,.26-3.91q1.24-6.22,2.59-12.36a16.17,16.17,0,0,0,.59-5,2.57,2.57,0,0,0-1.3-1.76,3.43,3.43,0,0,0-2.36-.52,5.46,5.46,0,0,0-3.89,2.67,6.45,6.45,0,0,0-1,4.88,3.71,3.71,0,0,0,1.06,2.17,5.94,5.94,0,0,0,2.6,1.1,2.18,2.18,0,0,1,1.87,1.84,2.88,2.88,0,0,1-.6,2.41,3.66,3.66,0,0,1-2.32,1.33,6.26,6.26,0,0,1-5.37-1.61,9.72,9.72,0,0,1-3.23-5.72,12.28,12.28,0,0,1,2.06-9.73A11.6,11.6,0,0,1,69,82.27a10,10,0,0,1,6.92,1.44,7.4,7.4,0,0,1,3.51,5.23,14.23,14.23,0,0,1-.35,5.51Q77.41,101.55,75.86,108.76Z"/><path class="cls-3" d="M111.87,95.63q3.13,6.11,6.14,12.08a2.67,2.67,0,0,0,2.89,1.37q3.69-.31,7.4-.55c2.16-.13,3.28.5,3.38,1.88a2.61,2.61,0,0,1-1,2.31,5.4,5.4,0,0,1-3.09,1q-3.76.3-7.51.66a8.37,8.37,0,0,1-4.28-.36,7,7,0,0,1-2.55-3.08q-3.8-7.49-7.83-15.14-1.75,5.84-3.42,11.78c-.65,2.33-1.8,3.61-3.47,3.83a2.57,2.57,0,0,1-1.88-.42,2.08,2.08,0,0,1-1-1.5,4.92,4.92,0,0,1,.16-1.76c.06-.23.13-.45.19-.68q2-7.59,4.16-15a14.28,14.28,0,0,0,.83-4.62,2.53,2.53,0,0,0-1.26-1.82A3.92,3.92,0,0,0,97.31,85a5.65,5.65,0,0,0-4.1,2.3,5.8,5.8,0,0,0-1.32,4.52c.25,1.76,1.4,2.86,3.43,3.34,1.24.28,1.93.92,2.06,1.92a2.54,2.54,0,0,1-.74,2.19,3.86,3.86,0,0,1-2.4,1.11A6.49,6.49,0,0,1,89,98.62,9,9,0,0,1,86,93.1a11.29,11.29,0,0,1,2.57-9.16,11.74,11.74,0,0,1,8.67-4.43,10.53,10.53,0,0,1,6.87,1.74,7.06,7.06,0,0,1,3.26,5.16,12.78,12.78,0,0,1-.65,5.16l-.6,1.94q5.46-6.56,11.19-12.68a5.19,5.19,0,0,1,3.55-2,3,3,0,0,1,2,.65,2.37,2.37,0,0,1,.92,1.69c.08.85-.48,1.88-1.67,3.13Q116.89,89.79,111.87,95.63Z"/><path class="cls-3" d="M141.34,91.81q2.1-5.06,4.28-10a4.14,4.14,0,0,1,1.49-2.06,6.34,6.34,0,0,1,3-.32q6.26.3,12.51.77c2.23.17,3.36.89,3.38,2.12a2.22,2.22,0,0,1-1.06,2,4.12,4.12,0,0,1-2.69.64l-.65,0c-3.42-.22-6.83-.39-10.24-.53-1.12,2.49-2.22,5-3.3,7.52l3,.06h.62c1.77,0,2.68.73,2.72,2a2.32,2.32,0,0,1-1,2,4.07,4.07,0,0,1-2.6.8h-.64l-4.11,0q-2.34,5.58-4.59,11.27,7.94-.27,15.9-.25h.6c1.72,0,2.59.64,2.61,1.87a2.44,2.44,0,0,1-1,2,4.09,4.09,0,0,1-2.56.83h-.62q-8.46.09-16.88.52l-.27.59a44.58,44.58,0,0,1-2.22,4.67,14,14,0,0,1-2.17,2.7,13.7,13.7,0,0,1-8.33,4,9.26,9.26,0,0,1-6.64-1.5A7.17,7.17,0,0,1,116.7,118a8,8,0,0,1,.71-4.19,7.71,7.71,0,0,1,2.75-3.23,13.63,13.63,0,0,1,6.62-1.87q4-.27,8.1-.48,2.19-5.81,4.46-11.5h-.78c-1.75,0-2.66-.63-2.76-2a2.45,2.45,0,0,1,.95-2.1,3.91,3.91,0,0,1,2.6-.87h2ZM133,113.38q-3,.2-6,.43c-3,.24-4.35,1.37-4.18,3.34a2.51,2.51,0,0,0,1.14,1.94,3.6,3.6,0,0,0,2.47.58,6.26,6.26,0,0,0,3.76-1.88A11.9,11.9,0,0,0,133,113.38Z"/><path class="cls-3" d="M194.56,98.54q2.31,4.86,4.52,9.6a3,3,0,0,0,2.39,2l.92.08q4.85.51,9.67,1.14c2.13.28,3.15,1,3.06,2a1.94,1.94,0,0,1-1.26,1.69,6.29,6.29,0,0,1-3.2.27q-5.29-.61-10.59-1.1c-2.91-.26-4.87-1.5-5.92-3.77q-3-6.6-6.29-13.41-1.67,2.91-3.3,5.86c-1.57,2.84-2.66,4.78-3.3,5.78a18.2,18.2,0,0,1-2.21,2.79,14.52,14.52,0,0,1-11,4.62,11.71,11.71,0,0,1-7.81-2.58,8.87,8.87,0,0,1-3.15-6.84,11.83,11.83,0,0,1,4.58-9.63,17.74,17.74,0,0,1,6.52-3.26A22.13,22.13,0,0,1,176,93a6.22,6.22,0,0,1,3,.93,2.19,2.19,0,0,1,1.13,1.85,1.94,1.94,0,0,1-1.25,1.78,7.48,7.48,0,0,1-2.74.37,18.7,18.7,0,0,0-7.54,1.31,9.3,9.3,0,0,0-3.74,3,6.52,6.52,0,0,0-1.31,4,4.74,4.74,0,0,0,1.36,3.51,5.16,5.16,0,0,0,3.6,1.34,6.76,6.76,0,0,0,4.87-1.84,25.66,25.66,0,0,0,4.62-6.73q4.14-7.85,8.46-15.35L184,86.85c-2.21-.25-3.31-1-3.3-2.17a2,2,0,0,1,1.18-1.9,6,6,0,0,1,3.3-.31q4,.5,8,1.07a27.47,27.47,0,0,1,4.6,1,8.92,8.92,0,0,1,2.76,1.57,6.22,6.22,0,0,1,2.56,5.36,6.48,6.48,0,0,1-2.51,4.8A11,11,0,0,1,194.56,98.54Zm-5.2-4.06.69,0a10.41,10.41,0,0,0,4.06-.34c1.74-.66,2.65-1.7,2.71-3.16.07-1.68-1-2.68-3.07-3l-.53-.07C191.92,90.13,190.63,92.3,189.36,94.48Z"/><path class="cls-4" d="M67.8,209.43l7.09-13.58L108.75,131l45.3,77.13h0a99,99,0,0,1-86.25,1.3Z"/><path class="cls-4" d="M70.58,210.6h0l70.3-67.7,27.46,46.74,4.21,7.18a108.87,108.87,0,0,1-102,13.78Z"/><path class="cls-4" d="M147.22,210.6h0q-35.16-33.84-70.3-67.7L49.46,189.64l-4.22,7.18a108.89,108.89,0,0,0,102,13.78Z"/></g></g></svg>